# xmcd CD database file
#
# Track frame offsets:
#	150
#	9283
#	24811
#	39747
#	53780
#	74149
#	88641
#	106605
#	117930
#	129717
#	144242
#	162257
#	177604
#	192585
#	206819
#	217742
#	234621
#
# Disc length: 3385 seconds
#
# Revision: 0
# Processed by: cddbd v1.5.2PL0 Copyright (c) Steve Scherf et al.
# Submitted via: CDex 1.51
#
DISCID=ee0d3711
DTITLE=Almost Patsy Cline Band - Gettin' Older's Gettin' Easy
DYEAR=2004
DGENRE=Country
TTITLE0=Walking After Midnight
TTITLE1=It Could've Been You
TTITLE2=Couldn't Get a Fire Started at Home
TTITLE3=Headed South
TTITLE4=Fever
TTITLE5=Call 911 Margarita
TTITLE6=Gettin' Older's Gettin' Easy
TTITLE7=All the Gold in California
TTITLE8=Snowbird
TTITLE9=Giving You Away
TTITLE10=Man of Constant Sorrow
TTITLE11=She's Got You
TTITLE12=Stars on the Water
TTITLE13=You Belong to Me
TTITLE14=Sentimental Journey
TTITLE15=Leavin' on Your Mind
TTITLE16=Past the Point of Rescue
EXTD=YEAR: 2004
EXTT0=
EXTT1=
EXTT2=
EXTT3=
EXTT4=
EXTT5=
EXTT6=
EXTT7=
EXTT8=
EXTT9=
EXTT10=
EXTT11=
EXTT12=
EXTT13=
EXTT14=
EXTT15=
EXTT16=
PLAYORDER=
